<svg viewBox="0 0 20 20" fill="none" xmlns="http://www.w3.org/2000/svg">
  <path
    d="M16.6668 14.0837C16.6668 14.5837 17.0002 14.917 17.5002 14.917C18.0002 14.917 18.3335 14.5837 18.3335 14.0837V5.25033C18.3335 3.25033 16.7502 1.66699 14.7502 1.66699H5.91683C5.41683 1.66699 5.0835 2.00033 5.0835 2.50033C5.0835 3.00033 5.41683 3.33366 5.91683 3.33366H14.7502C15.8335 3.33366 16.6668 4.16699 16.6668 5.25033V14.0837Z"
    fill="currentColor"
  />
  <path
    fill-rule="evenodd"
    clip-rule="evenodd"
    d="M4.58366 18.3335H12.7503C14.3337 18.3335 15.5837 17.0835 15.667 15.4168V7.25016C15.667 5.5835 14.3337 4.3335 12.7503 4.3335H4.58366C2.91699 4.3335 1.66699 5.66683 1.66699 7.25016V15.4168C1.66699 17.0835 2.91699 18.3335 4.58366 18.3335ZM3.33366 7.25016C3.33366 6.5835 3.91699 6.0835 4.58366 6.0835V6.00016H12.7503C13.417 6.00016 14.0003 6.5835 14.0003 7.25016V15.4168C14.0003 16.0835 13.417 16.6668 12.7503 16.6668H4.58366C3.91699 16.6668 3.33366 16.0835 3.33366 15.4168V7.25016Z"
    fill="currentColor"
  />
</svg>
