<svg
  width="24"
  height="24"
  viewBox="0 0 24 24"
  fill="none"
  xmlns="http://www.w3.org/2000/svg"
>
  <path
    d="M11.9983 23.967C18.6074 23.967 23.9653 18.6092 23.9653 12C23.9653 5.39077 18.6074 0.032959 11.9983 0.032959C5.38906 0.032959 0.03125 5.39077 0.03125 12C0.03125 18.6092 5.38906 23.967 11.9983 23.967Z"
    fill="#0C2129"
  />
  <path
    d="M13.6675 4.70851L5.46804 8.35913C4.71336 8.69514 4.37395 9.57932 4.70996 10.334L4.71008 10.3343C5.04609 11.089 5.93027 11.4284 6.68496 11.0924L14.8844 7.44175C15.6391 7.10574 15.9785 6.22155 15.6425 5.46687L15.6424 5.46659C15.3063 4.71191 14.4222 4.3725 13.6675 4.70851Z"
    fill="#37BEC1"
  />
  <path
    d="M11.3915 10.6334L5.92508 13.0673C5.17039 13.4033 4.83098 14.2875 5.16699 15.0421L5.16711 15.0424C5.50312 15.7971 6.3873 16.1365 7.14199 15.8005L12.6085 13.3667C13.3632 13.0307 13.7026 12.1465 13.3665 11.3918L13.3664 11.3915C13.0304 10.6368 12.1462 10.2974 11.3915 10.6334Z"
    fill="#FBB144"
  />
  <path
    d="M17.3159 12.9078L9.11648 16.5585C8.36179 16.8945 8.02239 17.7787 8.3584 18.5334L8.35852 18.5336C8.69453 19.2883 9.57871 19.6277 10.3334 19.2917L18.5328 15.6411C19.2875 15.3051 19.6269 14.4209 19.2909 13.6662L19.2908 13.6659C18.9548 12.9112 18.0706 12.5718 17.3159 12.9078Z"
    fill="#E4615E"
  />
</svg>
