<svg
  width="28"
  height="28"
  viewBox="0 0 28 28"
  fill="none"
  xmlns="http://www.w3.org/2000/svg"
>
  <path
    fill-rule="evenodd"
    clip-rule="evenodd"
    d="M13.1274 0.978395C13.6822 0.883117 14.2492 0.883117 14.804 0.978395C15.4321 1.08626 16.023 1.35404 16.8773 1.74118C16.9142 1.75794 16.9517 1.77491 16.9897 1.79211L21.9801 4.05184C22.0179 4.06893 22.0552 4.0858 22.0921 4.10249C23.058 4.53943 23.7369 4.84654 24.3426 5.42013C24.8181 5.87029 25.3211 6.62037 25.5571 7.23108C25.8575 8.00829 25.8792 8.61667 25.9098 9.47514C25.9107 9.49878 25.9115 9.5226 25.9124 9.54663C26.0306 12.8405 25.5436 16.8085 23.8776 20.1584C22.1926 23.5467 19.2855 26.3158 14.6553 27.0277L14.6474 27.0289C14.5001 27.0516 14.3886 27.0687 14.2074 27.0798C14.078 27.0877 13.8535 27.0877 13.7241 27.0798C13.5429 27.0687 13.4314 27.0516 13.284 27.0289L13.2762 27.0277C8.64599 26.3158 5.73886 23.5467 4.05383 20.1584C2.38786 16.8085 1.90084 12.8405 2.01908 9.54663C2.01994 9.5226 2.02079 9.49878 2.02164 9.47514C2.05225 8.61667 2.07395 8.00829 2.37432 7.23108C2.61036 6.62037 3.11338 5.87029 3.58882 5.42013C4.19461 4.84654 4.8735 4.53943 5.83939 4.10249C5.87628 4.0858 5.91359 4.06892 5.95133 4.05184L10.9418 1.79211C10.9798 1.77491 11.0172 1.75794 11.0542 1.74118C11.9085 1.35404 12.4994 1.08626 13.1274 0.978395ZM14.4691 2.92842C14.136 2.87121 13.7955 2.87121 13.4623 2.92842C13.1156 2.98797 12.7677 3.13729 11.7579 3.59451L6.76747 5.85424C5.65088 6.35985 5.28737 6.53664 4.94918 6.85685C4.68721 7.1049 4.34992 7.60783 4.21986 7.94435C4.04838 8.38804 4.02993 8.68319 3.99638 9.61761C3.88559 12.7041 4.35247 16.3156 5.82541 19.2774C7.27929 22.2008 9.69607 24.4754 13.5768 25.0721C13.7217 25.0944 13.7574 25.0996 13.8448 25.1049C13.8938 25.1079 14.0377 25.1079 14.0867 25.1049C14.1741 25.0996 14.2098 25.0944 14.3546 25.0721C18.2354 24.4754 20.6522 22.2008 22.106 19.2774C23.579 16.3156 24.0459 12.7041 23.9351 9.61761C23.9015 8.68319 23.8831 8.38804 23.7116 7.94435C23.5815 7.60783 23.2443 7.1049 22.9823 6.85685C22.6441 6.53664 22.2806 6.35985 21.164 5.85424L16.1735 3.59451C15.1638 3.13729 14.8159 2.98797 14.4691 2.92842Z"
    fill="white"
  />
  <path
    fill-rule="evenodd"
    clip-rule="evenodd"
    d="M12.7693 11.6201C12.7024 11.8232 12.5127 11.9605 12.2987 11.9605H9.84946C9.36793 11.9605 9.16943 12.578 9.56077 12.8586L11.5309 14.2712C11.7069 14.3973 11.7805 14.6231 11.7128 14.8288L10.9576 17.1224C10.8077 17.5777 11.3273 17.9593 11.7169 17.68L13.7124 16.2492C13.885 16.1255 14.1172 16.1255 14.2898 16.2492L16.2853 17.68C16.6749 17.9593 17.1945 17.5777 17.0446 17.1224L16.2894 14.8288C16.2217 14.6231 16.2954 14.3973 16.4713 14.2712L18.4415 12.8586C18.8328 12.578 18.6343 11.9605 18.1528 11.9605H15.7035C15.4896 11.9605 15.2998 11.8232 15.2329 11.6201L14.4717 9.30808C14.3222 8.85409 13.68 8.85409 13.5305 9.30808L12.7693 11.6201ZM16.7767 9.98197H18.1528C20.5574 9.98197 21.5486 13.0655 19.5944 14.4666L18.5094 15.2445L18.9239 16.5036C19.6725 18.7772 17.0778 20.6827 15.1325 19.288L14.0011 18.4768L12.8698 19.288C10.9245 20.6827 8.32973 18.7772 9.07831 16.5036L9.49288 15.2445L8.40789 14.4666C6.4537 13.0655 7.44489 9.98197 9.84946 9.98197H11.2256L11.6512 8.68931C12.3977 6.42225 15.6046 6.42224 16.351 8.68931L16.7767 9.98197Z"
    fill="white"
  />
</svg>
