<svg
  width="24"
  height="24"
  viewBox="0 0 24 24"
  fill="none"
  xmlns="http://www.w3.org/2000/svg"
>
  <g clip-path="url(#clip0_6717_15533)">
    <path
      d="M12 24C18.65 24 24 18.65 24 12C24 5.35 18.65 0 12 0C5.35 0 0 5.35 0 12C0 18.65 5.35 24 12 24Z"
      fill="#2775CA"
    />
    <path
      d="M15.3016 13.9C15.3016 12.15 14.2516 11.55 12.1516 11.3001C10.6516 11.1 10.3516 10.7001 10.3516 9.99998C10.3516 9.29988 10.8516 8.84998 11.8516 8.84998C12.7516 8.84998 13.2516 9.14997 13.5016 9.89997C13.5516 10.05 13.7016 10.15 13.8516 10.15H14.6515C14.8516 10.15 15.0016 9.99998 15.0016 9.80008V9.74998C14.8015 8.64998 13.9015 7.79998 12.7516 7.70008V6.50008C12.7516 6.29998 12.6016 6.14998 12.3516 6.09998H11.6016C11.4016 6.09998 11.2516 6.24998 11.2015 6.50008V7.64997C9.70146 7.85007 8.75156 8.84997 8.75156 10.1001C8.75156 11.7501 9.75156 12.4 11.8516 12.6501C13.2516 12.9 13.7016 13.2 13.7016 14.0001C13.7016 14.8001 13.0015 15.3501 12.0516 15.3501C10.7515 15.3501 10.3015 14.8 10.1515 14.05C10.1016 13.8501 9.95156 13.75 9.80156 13.75H8.95146C8.75156 13.75 8.60156 13.9 8.60156 14.1V14.1501C8.80146 15.4 9.60156 16.3 11.2516 16.5501V17.7501C11.2516 17.95 11.4016 18.1 11.6515 18.15H12.4015C12.6016 18.15 12.7516 18 12.8016 17.7501V16.5501C14.3016 16.3 15.3016 15.25 15.3016 13.9Z"
      fill="white"
    />
    <path
      d="M9.45095 19.15C5.55095 17.7501 3.55095 13.4001 5.00095 9.55002C5.75095 7.45002 7.40095 5.85002 9.45095 5.10002C9.65095 5.00012 9.75095 4.85012 9.75095 4.60002V3.90002C9.75095 3.70002 9.65095 3.55002 9.45095 3.50012C9.40095 3.50012 9.30095 3.50012 9.25095 3.55002C4.50095 5.05002 1.90091 10.1001 3.40095 14.85C4.30095 17.65 6.45095 19.8 9.25095 20.7C9.45095 20.8 9.65095 20.7 9.70095 20.5C9.75095 20.4501 9.75095 20.4 9.75095 20.3001V19.6C9.75095 19.45 9.60095 19.2501 9.45095 19.15ZM14.751 3.55002C14.551 3.45002 14.351 3.55002 14.301 3.75002C14.251 3.80012 14.251 3.85002 14.251 3.95012V4.65002C14.251 4.85012 14.401 5.05002 14.551 5.15012C18.451 6.55002 20.451 10.9 19.001 14.7501C18.251 16.8501 16.601 18.45 14.551 19.2C14.351 19.3 14.251 19.45 14.251 19.7001V20.4C14.251 20.6001 14.351 20.7501 14.551 20.8C14.601 20.8 14.701 20.8 14.751 20.7501C19.501 19.2501 22.101 14.2 20.601 9.45002C19.701 6.60002 17.501 4.45002 14.751 3.55002Z"
      fill="white"
    />
  </g>
  <defs>
    <clipPath id="clip0_6717_15533">
      <rect width="24" height="24" fill="white" />
    </clipPath>
  </defs>
</svg>
